<?xml version="1.0" encoding="utf-8"?>
<svg version="1.1" id="phone" xmlns="http://www.w3.org/2000/svg" xmlns:xlink="http://www.w3.org/1999/xlink" x="0px" y="0px" fill="#0e7f61"
	 viewBox="0 0 208.97 208.74" style="enable-background:new 0 0 208.97 208.74;" xml:space="preserve">
<g>
	<path d="M69.15,74.47c13.46,23.37,42.94,52.81,65.5,65.37c3.3-3.53,6.66-7.39,10.3-10.97c10.47-10.32,24.55-10.34,35.02-0.06
		c7.22,7.09,14.36,14.26,21.43,21.5c10.08,10.32,10.06,24.23,0.05,34.68c-0.8,0.84-1.71,1.59-2.44,2.48
		c-18.32,22.17-41.7,25.12-67.61,17.46c-32.55-9.63-59.09-28.84-82.24-53.04c-20.29-21.21-36.64-45.01-45.01-73.53
		c-3.57-12.17-5.69-24.58-2.83-37.3c2.09-9.29,6.5-17.33,13.19-24.11c3.38-3.43,6.73-6.88,10.26-10.15C34.55-2.28,48.4-2.29,58,6.93
		C65.77,14.4,73.43,22,80.9,29.77c9.37,9.76,9.26,23.77-0.15,33.58C77.09,67.18,73.11,70.7,69.15,74.47z M157.07,192.57
		c1.35-0.16,3.66-0.37,5.95-0.71c12.88-1.93,20.83-11.05,28.61-20.12c2.71-3.16,1.51-6.97-1.38-9.89
		c-7.12-7.2-14.25-14.39-21.49-21.47c-4.2-4.1-8.38-4.04-12.65,0.09c-4.66,4.5-9.15,9.16-13.76,13.7
		c-4.59,4.52-7.37,4.92-12.78,1.65c-31.72-19.16-57.14-44.63-76.29-76.35c-3.16-5.24-2.78-8.02,1.52-12.39
		c4.66-4.73,9.45-9.33,14.06-14.11c3.84-3.97,4.13-8.13,0.54-11.9c-7.34-7.68-14.82-15.23-22.41-22.65
		c-3.43-3.35-7.56-3.31-11.19-0.14c-3.12,2.72-6,5.73-9,8.59c-7.96,7.61-11.8,17.09-10.49,27.84c1.09,8.98,2.58,18.27,6.02,26.54
		c19.74,47.46,53.72,81.46,100.1,103.18C133.02,189.41,144.35,191.96,157.07,192.57z"/>
</g>
</svg>
